<svg width="120" height="120" viewBox="0 0 120 120" fill="none" xmlns="http://www.w3.org/2000/svg">
<g clip-path="url(#clip0_71_71)">
<path d="M15 60C15 65.9095 16.164 71.7611 18.4254 77.2208C20.6869 82.6804 24.0016 87.6412 28.1802 91.8198C32.3588 95.9984 37.3196 99.3131 42.7792 101.575C48.2389 103.836 54.0905 105 60 105C65.9095 105 71.7611 103.836 77.2208 101.575C82.6804 99.3131 87.6412 95.9984 91.8198 91.8198C95.9984 87.6412 99.3131 82.6804 101.575 77.2208C103.836 71.7611 105 65.9095 105 60C105 54.0905 103.836 48.2389 101.575 42.7792C99.3131 37.3196 95.9984 32.3588 91.8198 28.1802C87.6412 24.0016 82.6804 20.6869 77.2208 18.4254C71.7611 16.164 65.9095 15 60 15C54.0905 15 48.2389 16.164 42.7792 18.4254C37.3196 20.6869 32.3588 24.0016 28.1802 28.1802C24.0016 32.3588 20.6869 37.3196 18.4254 42.7792C16.164 48.2389 15 54.0905 15 60Z" stroke="#07F49E" stroke-width="4" stroke-linecap="round" stroke-linejoin="round"/>
<path d="M55 60C55 61.3261 55.5268 62.5979 56.4645 63.5355C57.4021 64.4732 58.6739 65 60 65C61.3261 65 62.5979 64.4732 63.5355 63.5355C64.4732 62.5979 65 61.3261 65 60C65 58.6739 64.4732 57.4021 63.5355 56.4645C62.5979 55.5268 61.3261 55 60 55C58.6739 55 57.4021 55.5268 56.4645 56.4645C55.5268 57.4021 55 58.6739 55 60Z" stroke="#07F49E" stroke-width="4" stroke-linecap="round" stroke-linejoin="round"/>
<path d="M35 60C35 53.3696 37.6339 47.0107 42.3223 42.3223C47.0107 37.6339 53.3696 35 60 35" stroke="#07F49E" stroke-width="4" stroke-linecap="round" stroke-linejoin="round"/>
<path d="M60 85C66.6304 85 72.9893 82.3661 77.6777 77.6777C82.3661 72.9893 85 66.6304 85 60" stroke="#07F49E" stroke-width="4" stroke-linecap="round" stroke-linejoin="round"/>
</g>
<defs>
<clipPath id="clip0_71_71">
<rect width="120" height="120" fill="white"/>
</clipPath>
</defs>
</svg>
