<svg width="40" height="40" viewBox="0 0 40 40" fill="none" xmlns="http://www.w3.org/2000/svg">
<g clip-path="url(#clip0_66_31)">
<path d="M8.33333 20H5L20 5L35 20H31.6667" stroke="#07F49E" stroke-width="2" stroke-linecap="round" stroke-linejoin="round"/>
<path d="M8.33331 20V31.6667C8.33331 32.5507 8.6845 33.3986 9.30962 34.0237C9.93474 34.6488 10.7826 35 11.6666 35H28.3333C29.2174 35 30.0652 34.6488 30.6903 34.0237C31.3155 33.3986 31.6666 32.5507 31.6666 31.6667V20" stroke="#07F49E" stroke-width="2" stroke-linecap="round" stroke-linejoin="round"/>
<path d="M15 35V25C15 24.116 15.3512 23.2681 15.9763 22.643C16.6014 22.0179 17.4493 21.6667 18.3333 21.6667H21.6667C22.5507 21.6667 23.3986 22.0179 24.0237 22.643C24.6488 23.2681 25 24.116 25 25V35" stroke="#07F49E" stroke-width="2" stroke-linecap="round" stroke-linejoin="round"/>
</g>
<defs>
<clipPath id="clip0_66_31">
<rect width="40" height="40" fill="white"/>
</clipPath>
</defs>
</svg>
