<svg width="40" height="40" viewBox="0 0 40 40" fill="none" xmlns="http://www.w3.org/2000/svg">
<path d="M0 5.35686C0 2.77041 2.09673 0.673683 4.68318 0.673683C7.26963 0.673683 9.36636 2.77042 9.36636 5.35686V35.0633C9.36636 37.6498 7.26963 39.7465 4.68318 39.7465C2.09673 39.7465 0 37.6498 0 35.0633V5.35686Z" fill="#07F49E"/>
<path d="M12.2484 5.35686C12.2484 2.77041 14.3451 0.673683 16.9315 0.673683C19.518 0.673683 21.6147 2.77042 21.6147 5.35686V35.0633C21.6147 37.6498 19.518 39.7465 16.9315 39.7465C14.3451 39.7465 12.2484 37.6498 12.2484 35.0633V5.35686Z" fill="#07F49E"/>
<path d="M24.879 6.03275C24.4517 3.76728 25.9494 1.62674 28.2241 1.25171C30.4988 0.876686 32.6891 2.40919 33.1164 4.67466L38.6404 33.9672C39.0676 36.2327 37.57 38.3732 35.2953 38.7483C33.0206 39.1233 30.8302 37.5908 30.403 35.3253L24.879 6.03275Z" stroke="#07F49E"/>
</svg>
