<svg width="32" height="32" viewBox="0 0 32 32" fill="none" xmlns="http://www.w3.org/2000/svg">
<g clip-path="url(#clip0_66_12)">
<path d="M4 6.66668V25.3333C3.99993 25.5679 4.06176 25.7984 4.17926 26.0015C4.29675 26.2045 4.46574 26.373 4.66917 26.4899C4.87259 26.6067 5.10326 26.6679 5.33786 26.6671C5.57246 26.6663 5.8027 26.6036 6.00533 26.4853L22.0053 17.152C22.2068 17.0346 22.3739 16.8665 22.4901 16.6643C22.6062 16.4622 22.6673 16.2331 22.6673 16C22.6673 15.7669 22.6062 15.5378 22.4901 15.3357C22.3739 15.1335 22.2068 14.9654 22.0053 14.848L6.00533 5.51468C5.8027 5.39643 5.57246 5.33375 5.33786 5.33295C5.10326 5.33216 4.87259 5.39328 4.66917 5.51014C4.46574 5.627 4.29675 5.79547 4.17926 5.99854C4.06176 6.2016 3.99993 6.43207 4 6.66668Z" fill="#07F49E"/>
<path d="M26.6667 5.33334C26.9932 5.33339 27.3084 5.45328 27.5525 5.6703C27.7965 5.88731 27.9525 6.18634 27.9907 6.51068L28 6.66668V25.3333C27.9996 25.6732 27.8695 26.0001 27.6362 26.2472C27.4029 26.4943 27.0841 26.643 26.7448 26.6629C26.4056 26.6828 26.0715 26.5724 25.8109 26.3543C25.5503 26.1362 25.3828 25.8268 25.3427 25.4893L25.3333 25.3333V6.66668C25.3333 6.31305 25.4738 5.97392 25.7239 5.72387C25.9739 5.47382 26.313 5.33334 26.6667 5.33334Z" fill="#07F49E"/>
</g>
<defs>
<clipPath id="clip0_66_12">
<rect width="32" height="32" fill="white"/>
</clipPath>
</defs>
</svg>
