<svg width="32" height="32" viewBox="0 0 32 32" fill="none" xmlns="http://www.w3.org/2000/svg">
<g clip-path="url(#clip0_66_20)">
<path d="M25.9947 5.51468L9.99467 14.848C9.79324 14.9654 9.62611 15.1335 9.50995 15.3357C9.39379 15.5378 9.33266 15.7669 9.33266 16C9.33266 16.2331 9.39379 16.4622 9.50995 16.6643C9.62611 16.8665 9.79324 17.0346 9.99467 17.152L25.9947 26.4853C26.1973 26.6036 26.4275 26.6663 26.6621 26.6671C26.8967 26.6679 27.1274 26.6067 27.3308 26.4899C27.5343 26.373 27.7033 26.2045 27.8207 26.0015C27.9382 25.7984 28.0001 25.5679 28 25.3333V6.66668C28.0001 6.43207 27.9382 6.2016 27.8207 5.99854C27.7033 5.79547 27.5343 5.627 27.3308 5.51014C27.1274 5.39328 26.8967 5.33216 26.6621 5.33295C26.4275 5.33375 26.1973 5.39643 25.9947 5.51468Z" fill="#07F49E"/>
<path d="M5.33333 5.33334C5.65991 5.33339 5.97512 5.45328 6.21916 5.6703C6.46321 5.88731 6.61912 6.18634 6.65733 6.51068L6.66667 6.66668V25.3333C6.66629 25.6732 6.53616 26.0001 6.30287 26.2472C6.06958 26.4943 5.75073 26.643 5.41147 26.6629C5.07222 26.6828 4.73816 26.5724 4.47756 26.3543C4.21695 26.1362 4.04947 25.8268 4.00933 25.4893L4 25.3333V6.66668C4 6.31305 4.14048 5.97392 4.39052 5.72387C4.64057 5.47382 4.97971 5.33334 5.33333 5.33334Z" fill="#07F49E"/>
</g>
<defs>
<clipPath id="clip0_66_20">
<rect width="32" height="32" fill="white"/>
</clipPath>
</defs>
</svg>
