<svg width="32" height="10" viewBox="0 0 32 10" fill="none" xmlns="http://www.w3.org/2000/svg">
<path d="M1 5C1 6.06087 1.42143 7.07828 2.17157 7.82843C2.92172 8.57857 3.93913 9 5 9C6.06087 9 7.07828 8.57857 7.82843 7.82843C8.57857 7.07828 9 6.06087 9 5C9 3.93913 8.57857 2.92172 7.82843 2.17157C7.07828 1.42143 6.06087 1 5 1C3.93913 1 2.92172 1.42143 2.17157 2.17157C1.42143 2.92172 1 3.93913 1 5Z" stroke="#07F49E" stroke-width="2" stroke-linecap="round" stroke-linejoin="round"/>
<path d="M12 5C12 6.06087 12.4214 7.07828 13.1716 7.82843C13.9217 8.57857 14.9391 9 16 9C17.0609 9 18.0783 8.57857 18.8284 7.82843C19.5786 7.07828 20 6.06087 20 5C20 3.93913 19.5786 2.92172 18.8284 2.17157C18.0783 1.42143 17.0609 1 16 1C14.9391 1 13.9217 1.42143 13.1716 2.17157C12.4214 2.92172 12 3.93913 12 5Z" stroke="#07F49E" stroke-width="2" stroke-linecap="round" stroke-linejoin="round"/>
<path d="M23 5C23 6.06087 23.4214 7.07828 24.1716 7.82843C24.9217 8.57857 25.9391 9 27 9C28.0609 9 29.0783 8.57857 29.8284 7.82843C30.5786 7.07828 31 6.06087 31 5C31 3.93913 30.5786 2.92172 29.8284 2.17157C29.0783 1.42143 28.0609 1 27 1C25.9391 1 24.9217 1.42143 24.1716 2.17157C23.4214 2.92172 23 3.93913 23 5Z" stroke="#07F49E" stroke-width="2" stroke-linecap="round" stroke-linejoin="round"/>
</svg>
