<svg width="40" height="40" viewBox="0 0 40 40" fill="none" xmlns="http://www.w3.org/2000/svg">
<path d="M10 1.00001C11.7693 0.665106 13.2742 0.952302 15 1.50001C16.7258 2.04772 18.6816 6.17733 20.0247 7.50001C21.3065 6.25035 23.3684 2.05147 25 1.50001C26.6316 0.948557 28.3089 0.755172 30 1.00001C32.1317 1.40888 34.1703 1.69315 35.8125 3.25729C37.4548 4.82143 38.6857 6.84983 39.3749 9.12769C40.0641 11.4055 40.186 13.8481 39.7276 16.1966C39.2693 18.5451 38.2477 20.7122 36.7712 22.4684L36.4113 22.8793L36.3154 22.9703L21.422 39.3576C21.0784 39.7355 20.623 39.9622 20.1404 39.9957C19.6578 40.0292 19.1806 39.8672 18.7972 39.5397L18.6093 39.3576L3.63002 22.8748C2.04317 21.1596 0.914634 18.9899 0.369397 16.6061C-0.17584 14.2223 -0.116502 11.7173 0.540841 9.3686C1.19818 7.01992 2.42788 4.91918 4.09373 3.29905C5.75959 1.67891 7.81743 1.41329 10 1.00001Z" fill="#07F49E"/>
</svg>
